<svg width="131" height="49" viewBox="0 0 131 49" fill="none" xmlns="http://www.w3.org/2000/svg">
<path d="M40.1294 21L40.1294 6.6L42.8494 6.6L42.8494 18.46L49.0494 18.46L49.0494 21L40.1294 21ZM55.1097 21.3C54.023 21.3 53.0697 21.0567 52.2497 20.57C51.4297 20.0833 50.7897 19.4133 50.3297 18.56C49.8763 17.7 49.6497 16.7133 49.6497 15.6C49.6497 14.4733 49.883 13.4833 50.3497 12.63C50.8163 11.77 51.4597 11.1 52.2797 10.62C53.0997 10.14 54.043 9.9 55.1097 9.9C56.1963 9.9 57.1497 10.1433 57.9697 10.63C58.7963 11.1167 59.4397 11.79 59.8997 12.65C60.3597 13.5033 60.5897 14.4867 60.5897 15.6C60.5897 16.72 60.3563 17.71 59.8897 18.57C59.4297 19.4233 58.7863 20.0933 57.9597 20.58C57.1397 21.06 56.1897 21.3 55.1097 21.3ZM55.1097 18.76C55.983 18.76 56.633 18.4667 57.0597 17.88C57.493 17.2867 57.7097 16.5267 57.7097 15.6C57.7097 14.64 57.4897 13.8733 57.0497 13.3C56.6163 12.7267 55.9697 12.44 55.1097 12.44C54.5163 12.44 54.0297 12.5733 53.6497 12.84C53.2697 13.1067 52.9863 13.4767 52.7997 13.95C52.6197 14.4233 52.5297 14.9733 52.5297 15.6C52.5297 16.5667 52.7463 17.3367 53.1797 17.91C53.6197 18.4767 54.263 18.76 55.1097 18.76ZM66.9087 26.1C66.2954 26.1 65.7121 26 65.1587 25.8C64.6054 25.6067 64.1087 25.3333 63.6687 24.98C63.2354 24.6333 62.8821 24.2267 62.6087 23.76L65.1287 22.54C65.3021 22.86 65.5487 23.1033 65.8687 23.27C66.1954 23.4367 66.5487 23.52 66.9287 23.52C67.3354 23.52 67.7187 23.45 68.0787 23.31C68.4387 23.1767 68.7254 22.9733 68.9387 22.7C69.1587 22.4333 69.2621 22.1 69.2487 21.7L69.2487 18.56L69.5887 18.56L69.5887 10.2L71.9687 10.2L71.9687 21.74C71.9687 22.0067 71.9554 22.2567 71.9287 22.49C71.9087 22.73 71.8687 22.9667 71.8087 23.2C71.6354 23.86 71.3121 24.4033 70.8387 24.83C70.3721 25.2567 69.7987 25.5733 69.1187 25.78C68.4387 25.9933 67.7021 26.1 66.9087 26.1ZM66.6687 21.3C65.6754 21.3 64.8054 21.05 64.0587 20.55C63.3121 20.05 62.7287 19.37 62.3087 18.51C61.8954 17.65 61.6887 16.68 61.6887 15.6C61.6887 14.5 61.8987 13.5233 62.3187 12.67C62.7454 11.81 63.3421 11.1333 64.1087 10.64C64.8754 10.1467 65.7754 9.9 66.8087 9.9C67.8354 9.9 68.6987 10.15 69.3987 10.65C70.0987 11.15 70.6287 11.83 70.9887 12.69C71.3487 13.55 71.5287 14.52 71.5287 15.6C71.5287 16.68 71.3454 17.65 70.9787 18.51C70.6187 19.37 70.0787 20.05 69.3587 20.55C68.6387 21.05 67.7421 21.3 66.6687 21.3ZM67.1087 18.88C67.7154 18.88 68.1987 18.7433 68.5587 18.47C68.9254 18.1967 69.1887 17.8133 69.3487 17.32C69.5087 16.8267 69.5887 16.2533 69.5887 15.6C69.5887 14.9467 69.5087 14.3733 69.3487 13.88C69.1887 13.3867 68.9321 13.0033 68.5787 12.73C68.2321 12.4567 67.7754 12.32 67.2087 12.32C66.6021 12.32 66.1021 12.47 65.7087 12.77C65.3221 13.0633 65.0354 13.46 64.8487 13.96C64.6621 14.4533 64.5687 15 64.5687 15.6C64.5687 16.2067 64.6587 16.76 64.8387 17.26C65.0187 17.7533 65.2954 18.1467 65.6687 18.44C66.0421 18.7333 66.5221 18.88 67.1087 18.88ZM79.1292 21.3C78.0425 21.3 77.0892 21.0567 76.2692 20.57C75.4492 20.0833 74.8092 19.4133 74.3492 18.56C73.8959 17.7 73.6692 16.7133 73.6692 15.6C73.6692 14.4733 73.9025 13.4833 74.3692 12.63C74.8359 11.77 75.4792 11.1 76.2992 10.62C77.1192 10.14 78.0625 9.9 79.1292 9.9C80.2159 9.9 81.1692 10.1433 81.9892 10.63C82.8159 11.1167 83.4592 11.79 83.9192 12.65C84.3792 13.5033 84.6092 14.4867 84.6092 15.6C84.6092 16.72 84.3759 17.71 83.9092 18.57C83.4492 19.4233 82.8059 20.0933 81.9792 20.58C81.1592 21.06 80.2092 21.3 79.1292 21.3ZM79.1292 18.76C80.0025 18.76 80.6525 18.4667 81.0792 17.88C81.5125 17.2867 81.7292 16.5267 81.7292 15.6C81.7292 14.64 81.5092 13.8733 81.0692 13.3C80.6359 12.7267 79.9892 12.44 79.1292 12.44C78.5359 12.44 78.0492 12.5733 77.6692 12.84C77.2892 13.1067 77.0059 13.4767 76.8192 13.95C76.6392 14.4233 76.5492 14.9733 76.5492 15.6C76.5492 16.5667 76.7659 17.3367 77.1992 17.91C77.6392 18.4767 78.2825 18.76 79.1292 18.76ZM39.9294 48L39.9294 33.6L42.6494 33.6L42.6494 39.52L49.0894 39.52L49.0894 33.6L51.8094 33.6L51.8094 48L49.0894 48L49.0894 42.06L42.6494 42.06L42.6494 48L39.9294 48ZM59.1369 48.3C58.0302 48.3 57.0535 48.0633 56.2069 47.59C55.3669 47.11 54.7069 46.4533 54.2269 45.62C53.7535 44.78 53.5169 43.82 53.5169 42.74C53.5169 41.56 53.7502 40.5333 54.2169 39.66C54.6835 38.7867 55.3269 38.11 56.1469 37.63C56.9669 37.1433 57.9102 36.9 58.9769 36.9C60.1102 36.9 61.0735 37.1667 61.8669 37.7C62.6602 38.2333 63.2469 38.9833 63.6269 39.95C64.0069 40.9167 64.1402 42.0533 64.0269 43.36L61.3369 43.36L61.3369 42.36C61.3369 41.26 61.1602 40.47 60.8069 39.99C60.4602 39.5033 59.8902 39.26 59.0969 39.26C58.1702 39.26 57.4869 39.5433 57.0469 40.11C56.6135 40.67 56.3969 41.5 56.3969 42.6C56.3969 43.6067 56.6135 44.3867 57.0469 44.94C57.4869 45.4867 58.1302 45.76 58.9769 45.76C59.5102 45.76 59.9669 45.6433 60.3469 45.41C60.7269 45.1767 61.0169 44.84 61.2169 44.4L63.9369 45.18C63.5302 46.1667 62.8869 46.9333 62.0069 47.48C61.1335 48.0267 60.1769 48.3 59.1369 48.3ZM55.5569 43.36L55.5569 41.34L62.7169 41.34L62.7169 43.36L55.5569 43.36ZM65.7848 48L65.7848 37.2L68.1848 37.2L68.1848 39.84L67.9248 39.5C68.0648 39.1267 68.2515 38.7867 68.4848 38.48C68.7182 38.1733 69.0048 37.92 69.3448 37.72C69.6048 37.56 69.8882 37.4367 70.1948 37.35C70.5015 37.2567 70.8182 37.2 71.1448 37.18C71.4715 37.1533 71.7982 37.16 72.1248 37.2L72.1248 39.74C71.8248 39.6467 71.4748 39.6167 71.0748 39.65C70.6815 39.6767 70.3248 39.7667 70.0048 39.92C69.6848 40.0667 69.4148 40.2633 69.1948 40.51C68.9748 40.75 68.8082 41.0367 68.6948 41.37C68.5815 41.6967 68.5248 42.0667 68.5248 42.48L68.5248 48L65.7848 48ZM78.3517 48.3C77.245 48.3 76.2684 48.0633 75.4217 47.59C74.5817 47.11 73.9217 46.4533 73.4417 45.62C72.9684 44.78 72.7317 43.82 72.7317 42.74C72.7317 41.56 72.965 40.5333 73.4317 39.66C73.8984 38.7867 74.5417 38.11 75.3617 37.63C76.1817 37.1433 77.125 36.9 78.1917 36.9C79.325 36.9 80.2884 37.1667 81.0817 37.7C81.875 38.2333 82.4617 38.9833 82.8417 39.95C83.2217 40.9167 83.355 42.0533 83.2417 43.36L80.5517 43.36L80.5517 42.36C80.5517 41.26 80.375 40.47 80.0217 39.99C79.675 39.5033 79.105 39.26 78.3117 39.26C77.385 39.26 76.7017 39.5433 76.2617 40.11C75.8284 40.67 75.6117 41.5 75.6117 42.6C75.6117 43.6067 75.8284 44.3867 76.2617 44.94C76.7017 45.4867 77.345 45.76 78.1917 45.76C78.725 45.76 79.1817 45.6433 79.5617 45.41C79.9417 45.1767 80.2317 44.84 80.4317 44.4L83.1517 45.18C82.745 46.1667 82.1017 46.9333 81.2217 47.48C80.3484 48.0267 79.3917 48.3 78.3517 48.3ZM74.7717 43.36L74.7717 41.34L81.9317 41.34L81.9317 43.36L74.7717 43.36Z" fill="#DEDEDE"/>
<path d="M11.3938 28.281L17.7277 10.0579H22.6108L14.0123 34.8271H8.81077L0.212308 10.0579H5.09538L11.3938 28.281Z" fill="#DEDEDE"/>
</svg>
